<svg xmlns="http://www.w3.org/2000/svg" width="134.075" height="143.714" viewBox="0 0 134.075 143.714">
  <g id="Group_24" data-name="Group 24" transform="translate(-205.843 -30.271)">
    <g id="Group_9" data-name="Group 9" transform="translate(205.843 30.271)">
      <g id="Group_5" data-name="Group 5" transform="translate(8.84)">
        <g id="Group_2" data-name="Group 2" transform="translate(0.43)">
          <g id="Group_1" data-name="Group 1">
            <path id="Path_1" data-name="Path 1" d="M225.265,90.01c-2.351-11.064-4.418-20.7-6.672-31.783a.7.7,0,0,1-.021-.2,2.378,2.378,0,0,1,.324-1.052,3.7,3.7,0,0,1,.808-1.057c1.4-1.27,2.123-1.88,3.593-3.052a1.286,1.286,0,0,1,1.03-.361.762.762,0,0,1,.61.6c1.657,8.458,2.257,11.59,4.137,21.241a.314.314,0,0,0,.111.173.248.248,0,0,0,.187.009.344.344,0,0,0,.18-.1.6.6,0,0,0,.093-.226c.865-10.363,1.263-15.764,2.04-26.937A3.775,3.775,0,0,1,232,46.171a4.75,4.75,0,0,1,.623-1.03,2.577,2.577,0,0,1,.731-.658c1.789-1.006,2.694-1.481,4.545-2.371a1.278,1.278,0,0,1,.771-.115,1.426,1.426,0,0,1,.711.351,1.343,1.343,0,0,1,.417.707c2.09,11.04,3.151,16.8,5.25,28.684.033.167.112.24.241.221a.269.269,0,0,0,.152-.088.38.38,0,0,0,.088-.205c.822-12.3,1.24-19.664,2.12-32.49a3.692,3.692,0,0,1,.623-1.682,2.318,2.318,0,0,1,1.217-.988c1.784-.557,2.685-.81,4.5-1.268a1.126,1.126,0,0,1,.767.07,1.465,1.465,0,0,1,.6.5,1.068,1.068,0,0,1,.2.65c-1.591,17.13-3.125,35.326-4.616,52.463a3.6,3.6,0,0,1-.589,1.85,1.47,1.47,0,0,1-1.217.688l-5.947,0a1.68,1.68,0,0,1-1.2-.537,2.564,2.564,0,0,1-.718-1.245c-1.771-9.142-2.665-13.573-4.4-22.09-.776,8.928-1.164,13.274-1.976,21.672a3.034,3.034,0,0,1-.643,1.61,1.538,1.538,0,0,1-1.217.6c-2.355,0-3.532.008-5.885.01a1.971,1.971,0,0,1-.862-.208,2.079,2.079,0,0,1-.7-.546A1.27,1.27,0,0,1,225.265,90.01Z" transform="translate(-218.572 -31.61)" fill="#003575"/>
            <path id="Path_2" data-name="Path 2" d="M274.471,88.479a2.9,2.9,0,0,1,.012-.371c2.207-17.736,4.549-37.475,7.085-55.173a2.747,2.747,0,0,1,.8-1.61,2.361,2.361,0,0,1,1.5-.742,77.108,77.108,0,0,1,8.206-.307,2.3,2.3,0,0,1,1.574.639,2.586,2.586,0,0,1,.827,1.561c2.728,17.83,5.225,37.71,7.555,55.592a2.283,2.283,0,0,1,.018.39,1.878,1.878,0,0,1-.438,1.25,1.394,1.394,0,0,1-1.1.482H295.46q-1.367,0-1.538-1.816c-.693-5.39-1.049-8.089-1.772-13.48-3.146-.011-4.719,0-7.859.078-.671,5.381-1,8.064-1.636,13.416a2.968,2.968,0,0,1-.453,1.385,1.273,1.273,0,0,1-1.063.417h-5.051a1.514,1.514,0,0,1-1.138-.478A1.786,1.786,0,0,1,274.471,88.479Zm16.637-23.266c-1.065-8.3-1.62-12.451-2.758-20.717a1.022,1.022,0,0,0-.125-.313.223.223,0,0,0-.2-.093.246.246,0,0,0-.2.1,1.038,1.038,0,0,0-.119.318c-1.028,8.33-1.523,12.493-2.48,20.8C287.578,65.233,288.755,65.217,291.107,65.213Z" transform="translate(-233.759 -30.271)" fill="#003575"/>
            <path id="Path_3" data-name="Path 3" d="M320.651,89.236c.46-17.462.923-35.869,1.384-53.332a2.228,2.228,0,0,1,.256-1.013,1.417,1.417,0,0,1,.61-.629,1.13,1.13,0,0,1,.782-.1c1.883.419,2.816.653,4.668,1.177a1.7,1.7,0,0,1,.757.486,2.666,2.666,0,0,1,.551.9,2.711,2.711,0,0,1,.18,1.084c-.511,14.3-1.015,29.549-1.532,43.85,3.594.2,5.387.318,8.955.589a1.35,1.35,0,0,1,1.028.538,2.007,2.007,0,0,1,.324,1.293c-.092,2.151-.14,3.221-.23,5.372a2,2,0,0,1-.438,1.222,1.322,1.322,0,0,1-1.063.5c-5.944-.005-8.914-.008-14.856-.01a1.089,1.089,0,0,1-.7-.261,1.86,1.86,0,0,1-.5-.7A2.314,2.314,0,0,1,320.651,89.236Z" transform="translate(-246.306 -31.32)" fill="#003575"/>
            <path id="Path_4" data-name="Path 4" d="M352.992,94.207c.628-14.734,1.255-27.068,1.885-41.8a1.441,1.441,0,0,1,.237-.785.8.8,0,0,1,.554-.338,1.122,1.122,0,0,1,.7.164c1.663.969,2.481,1.479,4.086,2.547a2.561,2.561,0,0,1,.648.657,3.439,3.439,0,0,1,.481.918,2.512,2.512,0,0,1,.162.942c-.395,11.386-.8,20.368-1.191,31.755,3.5.394,5.242.613,8.694,1.079a1.685,1.685,0,0,1,1.012.464,1.33,1.33,0,0,1,.367.958v3.85a1.12,1.12,0,0,1-.387.873,1.475,1.475,0,0,1-1.037.358c-5.941-.007-8.914-.009-14.855-.012a1.2,1.2,0,0,1-.7-.222,1.556,1.556,0,0,1-.5-.6A1.673,1.673,0,0,1,352.992,94.207Z" transform="translate(-255.093 -35.977)" fill="#003575"/>
          </g>
        </g>
        <g id="Group_4" data-name="Group 4" transform="translate(0 82.985)">
          <g id="Group_3" data-name="Group 3">
            <path id="Path_5" data-name="Path 5" d="M217.981,174.767V146.006a.872.872,0,0,1,.179-.539,1.268,1.268,0,0,1,.5-.395,1.6,1.6,0,0,1,.7-.147c5.861.083,8.794.121,14.668.182a1.313,1.313,0,0,1,.729.22,1.372,1.372,0,0,1,.484.581,1.664,1.664,0,0,1,.136.776c-.106,1.845-.159,2.765-.265,4.609a1.777,1.777,0,0,1-.238.792,1.5,1.5,0,0,1-.562.575,1.127,1.127,0,0,1-.718.149c-3.98-.5-5.951-.78-9.85-1.4-.114,3.244-.17,4.864-.283,8.108,2.857,1.026,4.312,1.5,7.274,2.375a1.478,1.478,0,0,1,.886.683,2.13,2.13,0,0,1,.269,1.24c-.1,1.75-.148,2.628-.245,4.382a1.139,1.139,0,0,1-.39.9.875.875,0,0,1-.914.034c-2.91-1.236-4.334-1.9-7.1-3.354-.2,5.876-.3,8.173-.511,14.047a.72.72,0,0,1-.17.5.393.393,0,0,1-.415.088,1.275,1.275,0,0,1-.549-.382c-1.055-1.106-1.571-1.678-2.571-2.851a5.016,5.016,0,0,1-.757-1.222A3.026,3.026,0,0,1,217.981,174.767Z" transform="translate(-217.981 -144.406)" fill="#003575"/>
            <path id="Path_6" data-name="Path 6" d="M240.525,190.087a1.607,1.607,0,0,1,.038-.294c3.2-14.243,6.169-28.525,9.062-42.824a2.4,2.4,0,0,1,.705-1.326,1.679,1.679,0,0,1,1.186-.524l6.263.036a1.53,1.53,0,0,1,1.176.575,2.47,2.47,0,0,1,.572,1.454c1.482,17.432,3.423,36.225,5.172,53.636a2.156,2.156,0,0,1,.008.39,1.611,1.611,0,0,1-.422,1.146,1.017,1.017,0,0,1-1.017.228c-1.847-.463-2.763-.722-4.582-1.3-.818-.261-1.256-.984-1.309-2.156-.41-5.271-.976-9.249-1.364-14.426-2.677-.734-4-1.144-6.606-2.068-.865,4.534-1.3,6.767-2.163,11.153a1.684,1.684,0,0,1-.468,1.01c-.2.146-.507.109-.917-.109-1.69-.9-2.522-1.374-4.155-2.386a2.482,2.482,0,0,1-.883-.964A2.357,2.357,0,0,1,240.525,190.087Zm15.043-14.56c-.514-7.859-.76-11.733-1.238-19.354a.955.955,0,0,0-.078-.294.186.186,0,0,0-.154-.1.173.173,0,0,0-.16.076,1.041,1.041,0,0,0-.108.276c-1.23,7.426-1.855,11.072-3.1,18.216C252.65,174.856,253.616,175.092,255.568,175.526Z" transform="translate(-224.105 -144.459)" fill="#003575"/>
            <path id="Path_7" data-name="Path 7" d="M281.112,201.939c.4-17.482.808-36.485,1.2-53.967a3.965,3.965,0,0,1,.238-1.295,2.708,2.708,0,0,1,.572-.972,1.044,1.044,0,0,1,.739-.358c4,.009,6,.009,10,.009a6.182,6.182,0,0,1,3.209.914,9.885,9.885,0,0,1,2.805,2.607,15.74,15.74,0,0,1,2.138,3.987,23.705,23.705,0,0,1,1.377,7.711c.243,10.531.364,17.315.607,27.843a24.919,24.919,0,0,1-.476,5.464,21.838,21.838,0,0,1-1.6,4.985,14.413,14.413,0,0,1-2.571,3.9,7.136,7.136,0,0,1-5.124,2.478c-2.51.033-3.767,0-6.272-.165a.151.151,0,0,1-.091.06.359.359,0,0,1-.131.005c-2.083-.141-3.123-.248-5.19-.526a1.207,1.207,0,0,1-.749-.43,2.713,2.713,0,0,1-.521-.966A3.872,3.872,0,0,1,281.112,201.939Zm11.458-6.7a3.282,3.282,0,0,0,2.275-.977,6.827,6.827,0,0,0,1.68-2.627,9.526,9.526,0,0,0,.61-3.472c-.084-10.151-.121-16.75-.2-26.9a9.041,9.041,0,0,0-.549-3.106,6.024,6.024,0,0,0-1.407-2.272,2.705,2.705,0,0,0-1.905-.844c-1.7,0-2.563,0-4.269-.024a.631.631,0,0,0-.534.347,1.458,1.458,0,0,0-.24.8c-.131,12.244-.266,26.01-.395,38.254a.889.889,0,0,0,.109.5.383.383,0,0,0,.32.19C289.867,195.2,290.767,195.221,292.569,195.234Z" transform="translate(-235.133 -144.521)" fill="#003575"/>
            <path id="Path_8" data-name="Path 8" d="M321.312,200.793c-.572-17.345-1.146-36.386-1.716-53.732a2.742,2.742,0,0,1,.319-1.508,1.074,1.074,0,0,1,.953-.585c5.868-.018,8.8-.028,14.664-.058a1.22,1.22,0,0,1,.982.522,2.235,2.235,0,0,1,.463,1.315c.111,1.959.17,2.938.28,4.9a2.518,2.518,0,0,1-.128.985,1.749,1.749,0,0,1-.447.738,1.084,1.084,0,0,1-.663.325c-4.02.369-6.047.524-10.113.777.208,4.774.309,7.163.516,11.938,3.131-.42,4.687-.665,7.762-1.232a.93.93,0,0,1,.933.334,2.036,2.036,0,0,1,.42,1.25c.111,2.039.167,3.059.278,5.1a2.6,2.6,0,0,1-.273,1.407,1.4,1.4,0,0,1-.886.752c-3.087.807-4.659,1.162-7.826,1.758.248,5.681.369,10.21.618,15.891a71.264,71.264,0,0,0,10.4-3.532.9.9,0,0,1,.995.123,1.57,1.57,0,0,1,.46,1.152c.114,1.958.167,2.942.277,4.9a3.073,3.073,0,0,1-.123,1.055,3.178,3.178,0,0,1-.451.95,1.852,1.852,0,0,1-.666.6,63.3,63.3,0,0,1-15.493,5.7.992.992,0,0,1-1.076-.375A2.328,2.328,0,0,1,321.312,200.793Z" transform="translate(-245.589 -144.403)" fill="#003575"/>
            <path id="Path_9" data-name="Path 9" d="M355.537,187.08a7.167,7.167,0,0,1-2.087-3.034,14.277,14.277,0,0,1-.956-4.545.334.334,0,0,1-.005-.068,3.642,3.642,0,0,1,.146-1.238,3.462,3.462,0,0,1,.524-1.08,1.909,1.909,0,0,1,.736-.648c1.362-.614,2.035-.938,3.363-1.609a.084.084,0,0,0,.076.01.518.518,0,0,0,.112-.044c.041-.02.056-.03.094-.047a1.023,1.023,0,0,1,.738.371,1.416,1.416,0,0,1,.334.894c.013.243.018.363.034.61a4.113,4.113,0,0,0,.376,1.6,1.883,1.883,0,0,0,.863.9,1.561,1.561,0,0,0,1.179.036,3.376,3.376,0,0,0,.941-.5l.133-.1a3.187,3.187,0,0,0,.258-.2.466.466,0,0,0,.135-.144l.045-.033a7.11,7.11,0,0,0,1.408-1.69,9,9,0,0,0,.949-2.087,6.01,6.01,0,0,0,.3-2.02c0-1.089,0-1.627,0-2.71a3.849,3.849,0,0,0-.58-2.034,2.012,2.012,0,0,0-1.438-.754,7.809,7.809,0,0,0-3.431.736c-.356.109-.534.162-.893.266-1.812.594-3.247.43-4.28-.493a7.351,7.351,0,0,1-2.147-3.859,31.623,31.623,0,0,1-.782-5.555c-.034-.936-.048-1.407-.084-2.343,0-.376,0-.564-.005-.939a13.388,13.388,0,0,1,.286-4.11,9.623,9.623,0,0,1,1.51-3.378,6.991,6.991,0,0,1,2.685-2.343,7.707,7.707,0,0,1,3.548-.693h1.541a8.422,8.422,0,0,1,3.35.713,9.98,9.98,0,0,1,2.864,1.855,7.666,7.666,0,0,1,1.868,2.621,7.946,7.946,0,0,1,.643,3.176v.047a1.676,1.676,0,0,1-.178.749,2.133,2.133,0,0,1-.484.642,1.684,1.684,0,0,1-.673.385c-1.275.367-1.916.542-3.211.886a.966.966,0,0,1-.888-.24,1.308,1.308,0,0,1-.39-.947c0-.149-.01-.222-.015-.374a3.261,3.261,0,0,0-.352-1.4,3.2,3.2,0,0,0-.878-1.071,3.249,3.249,0,0,0-1.268-.6,2.742,2.742,0,0,0-.979-.049l-.39.044a.426.426,0,0,1-.24.09,3.236,3.236,0,0,0-1.545.835,3.943,3.943,0,0,0-.988,1.529,5.014,5.014,0,0,0-.275,1.987c.081,1.424.119,2.136.195,3.56a2.837,2.837,0,0,0,.736,1.729,2.235,2.235,0,0,0,1.592.529,11.2,11.2,0,0,0,2.669-.479,9.682,9.682,0,0,1,4.631-.314c1.191.275,4.256,2.416,3.623,11.192-.617,8.565-5.559,12.216-7.356,13.855a14.745,14.745,0,0,1-4.8,2.64A3.73,3.73,0,0,1,355.537,187.08Z" transform="translate(-254.27 -144.213)" fill="#003575"/>
          </g>
        </g>
      </g>
      <g id="Group_8" data-name="Group 8" transform="translate(0 64.877)">
        <g id="Group_6" data-name="Group 6" transform="translate(0 4.636)">
          <path id="Path_10" data-name="Path 10" d="M251.4,129.3H207.635a1.79,1.79,0,1,1,0-3.58H251.4a1.79,1.79,0,0,1,0,3.58Z" transform="translate(-205.843 -125.715)" fill="#d80c23"/>
          <path id="Path_11" data-name="Path 11" d="M370.482,129.3H326.719a1.79,1.79,0,1,1,0-3.58h43.763a1.79,1.79,0,1,1,0,3.58Z" transform="translate(-238.198 -125.715)" fill="#d80c23"/>
        </g>
        <g id="Group_7" data-name="Group 7" transform="translate(56.514)">
          <path id="Path_12" data-name="Path 12" d="M284.054,130.446a2.871,2.871,0,0,1-.614-1.756v-5.9a2.755,2.755,0,0,1,.275-1.2,3.29,3.29,0,0,1,.787-1.031,4.491,4.491,0,0,1,1.21-.763,5.5,5.5,0,0,1,2.269-.449h.779a5.957,5.957,0,0,1,1.561.2,4.913,4.913,0,0,1,1.356.586,3.666,3.666,0,0,1,1.009.9,2.755,2.755,0,0,1,.593,1.738l.026,5.917a2.7,2.7,0,0,1-.278,1.186,3.5,3.5,0,0,1-.79,1.048,4.549,4.549,0,0,1-1.2.795,5.178,5.178,0,0,1-2.25.486H288a5.7,5.7,0,0,1-1.557-.212,5.034,5.034,0,0,1-1.363-.61A3.954,3.954,0,0,1,284.054,130.446Zm4.328-.357a2.148,2.148,0,0,0,.926-.2,1.748,1.748,0,0,0,.674-.541,1.2,1.2,0,0,0,.247-.729v-5.86a1.109,1.109,0,0,0-.247-.7,1.689,1.689,0,0,0-.677-.5,2.442,2.442,0,0,0-.943-.179h-.073a2.482,2.482,0,0,0-.947.179,1.694,1.694,0,0,0-.688.5,1.087,1.087,0,0,0-.256.7v5.86a1.17,1.17,0,0,0,.256.729,1.775,1.775,0,0,0,.688.541,2.238,2.238,0,0,0,.947.2Z" transform="translate(-283.44 -119.35)" fill="#d80c23"/>
          <path id="Path_13" data-name="Path 13" d="M300.877,131.665V120.1a.3.3,0,0,1,.088-.212.57.57,0,0,1,.24-.158.9.9,0,0,1,.331-.058h7a1.032,1.032,0,0,1,.355.058.607.607,0,0,1,.245.158.311.311,0,0,1,.087.212v1.273a.37.37,0,0,1-.091.225.659.659,0,0,1-.251.176.9.9,0,0,1-.345.066h-4.8v2.742H307.4a.736.736,0,0,1,.448.122.382.382,0,0,1,.168.326v1.255a.346.346,0,0,1-.17.3.771.771,0,0,1-.446.114h-3.663v4.967a.338.338,0,0,1-.089.221.605.605,0,0,1-.232.165.826.826,0,0,1-.322.063h-1.561a.854.854,0,0,1-.476-.123A.377.377,0,0,1,300.877,131.665Z" transform="translate(-288.177 -119.438)" fill="#d80c23"/>
        </g>
      </g>
    </g>
  </g>
</svg>
